<svg width="17" height="17" viewBox="0 0 17 17" fill="none" xmlns="http://www.w3.org/2000/svg">
<path d="M8.49992 2.83335C9.6715 2.83335 10.6249 3.78677 10.6249 4.95835H12.0416C12.0416 3.00548 10.4528 1.41669 8.49992 1.41669C6.54704 1.41669 4.95825 3.00548 4.95825 4.95835V6.37502H4.24992C3.46863 6.37502 2.83325 7.01039 2.83325 7.79169V14.1667C2.83325 14.948 3.46863 15.5834 4.24992 15.5834H12.7499C13.5312 15.5834 14.1666 14.948 14.1666 14.1667V7.79169C14.1666 7.01039 13.5312 6.37502 12.7499 6.37502H6.37492V4.95835C6.37492 3.78677 7.32833 2.83335 8.49992 2.83335ZM12.7513 14.1667H9.20825V12.5531C9.62971 12.3073 9.91658 11.8554 9.91658 11.3334C9.91658 10.5521 9.28121 9.91669 8.49992 9.91669C7.71863 9.91669 7.08325 10.5521 7.08325 11.3334C7.08325 11.8547 7.37013 12.3073 7.79158 12.5531V14.1667H4.24992V7.79169H12.7499L12.7513 14.1667Z" fill="white"/>
</svg>
