<svg width="51" height="43" viewBox="0 0 51 43" fill="none" xmlns="http://www.w3.org/2000/svg">
<path d="M18 4H16V18C16 19.1 16.9 20 18 20H32V18H18V4ZM34 0H22C20.9 0 20 0.9 20 2V14C20 15.1 20.9 16 22 16H34C35.1 16 36 15.1 36 14V2C36 0.9 35.1 0 34 0ZM34 14H22V2H34V14ZM26 3.5V12.5L32 8L26 3.5Z" fill="#8C8787"/>
<path d="M3.22354 30.0961C4.55283 30.0961 5.45772 29.3954 5.67793 28.2022H4.78506C4.60488 28.8989 4.03233 29.3113 3.22754 29.3113C2.16651 29.3113 1.49385 28.4585 1.49385 27.1092C1.49385 25.7719 2.17451 24.911 3.22354 24.911C4.0083 24.911 4.6249 25.3955 4.78506 26.1362H5.67393C5.52178 24.9311 4.53281 24.1263 3.22354 24.1263C1.60996 24.1263 0.576954 25.2794 0.576954 27.1092C0.576954 28.951 1.60195 30.0961 3.22354 30.0961ZM8.45238 30.0801C9.65756 30.0801 10.4503 29.2513 10.4503 27.8939C10.4503 26.5406 9.65356 25.7118 8.45238 25.7118C7.25121 25.7118 6.45443 26.5406 6.45443 27.8939C6.45443 29.2513 7.24721 30.0801 8.45238 30.0801ZM8.45238 29.3674C7.77572 29.3674 7.33529 28.8309 7.33529 27.8939C7.33529 26.961 7.77572 26.4245 8.45238 26.4245C9.12904 26.4245 9.56947 26.961 9.56947 27.8939C9.56947 28.8309 9.13305 29.3674 8.45238 29.3674ZM11.379 30H12.2438V27.3975C12.2438 26.8569 12.6082 26.4565 13.1207 26.4565C13.6092 26.4565 13.9175 26.7648 13.9175 27.2493V30H14.7663V27.3694C14.7663 26.8369 15.1226 26.4565 15.6351 26.4565C16.1476 26.4565 16.4399 26.7688 16.4399 27.3134V30H17.3088V27.1052C17.3088 26.2684 16.7642 25.7158 15.9314 25.7158C15.3308 25.7158 14.8344 26.0281 14.6181 26.5406H14.5981C14.43 26.0161 14.0055 25.7158 13.421 25.7158C12.8524 25.7158 12.412 26.0281 12.2238 26.4966H12.2038V25.7879H11.379V30ZM18.4336 30H19.2985V25.7879H18.4336V30ZM18.866 25.1713C19.1463 25.1713 19.3705 24.9511 19.3705 24.6788C19.3705 24.4025 19.1463 24.1823 18.866 24.1823C18.5898 24.1823 18.3655 24.4025 18.3655 24.6788C18.3655 24.9511 18.5898 25.1713 18.866 25.1713ZM20.4433 30H21.3082V27.5456C21.3082 26.893 21.7005 26.4605 22.3091 26.4605C22.9097 26.4605 23.206 26.8089 23.206 27.4415V30H24.0749V27.2733C24.0749 26.3084 23.5423 25.7158 22.6134 25.7158C21.9648 25.7158 21.5164 26.0121 21.2881 26.4926H21.2681V25.7879H20.4433V30ZM26.9654 29.2993C26.3008 29.2993 25.8684 28.7628 25.8684 27.8819C25.8684 27.0051 26.3008 26.4485 26.9654 26.4485C27.6421 26.4485 28.0865 27.0171 28.0865 27.8819C28.0865 28.7508 27.6421 29.2993 26.9654 29.2993ZM26.9734 31.5855C28.1746 31.5855 28.9514 30.9289 28.9514 29.9239V25.7879H28.1105V26.5086H28.0945C27.8383 26.0201 27.3498 25.7198 26.7532 25.7198C25.6722 25.7198 24.9835 26.5526 24.9835 27.8779C24.9835 29.1912 25.6762 30.016 26.7332 30.016C27.3338 30.016 27.8303 29.7157 28.0665 29.2593H28.0825V29.952C28.0825 30.5285 27.6821 30.9129 27.0055 30.9129C26.513 30.9129 26.1286 30.6807 26.0045 30.3283H25.1356C25.2438 31.057 25.9805 31.5855 26.9734 31.5855ZM31.8417 28.3904C31.8977 29.4354 32.7626 30.0961 34.0438 30.0961C35.4132 30.0961 36.274 29.4194 36.274 28.3384C36.274 27.4936 35.7815 27.0171 34.5964 26.7368L33.9597 26.5807C33.215 26.3965 32.9107 26.1563 32.9107 25.7479C32.9107 25.2354 33.3872 24.883 34.0839 24.883C34.7805 24.883 35.257 25.2313 35.3091 25.8079H36.1819C36.1539 24.8109 35.3171 24.1263 34.0959 24.1263C32.8627 24.1263 31.9938 24.8109 31.9938 25.8079C31.9938 26.6127 32.4863 27.1092 33.5473 27.3654L34.2961 27.5456C35.0448 27.7298 35.3611 27.998 35.3611 28.4465C35.3611 28.963 34.8366 29.3394 34.1079 29.3394C33.3471 29.3394 32.7906 28.963 32.7265 28.3904H31.8417ZM39.0445 30.0801C40.2496 30.0801 41.0424 29.2513 41.0424 27.8939C41.0424 26.5406 40.2456 25.7118 39.0445 25.7118C37.8433 25.7118 37.0465 26.5406 37.0465 27.8939C37.0465 29.2513 37.8393 30.0801 39.0445 30.0801ZM39.0445 29.3674C38.3678 29.3674 37.9274 28.8309 37.9274 27.8939C37.9274 26.961 38.3678 26.4245 39.0445 26.4245C39.7211 26.4245 40.1615 26.961 40.1615 27.8939C40.1615 28.8309 39.7251 29.3674 39.0445 29.3674ZM43.7808 30.0801C44.986 30.0801 45.7788 29.2513 45.7788 27.8939C45.7788 26.5406 44.982 25.7118 43.7808 25.7118C42.5797 25.7118 41.7829 26.5406 41.7829 27.8939C41.7829 29.2513 42.5756 30.0801 43.7808 30.0801ZM43.7808 29.3674C43.1042 29.3674 42.6637 28.8309 42.6637 27.8939C42.6637 26.961 43.1042 26.4245 43.7808 26.4245C44.4575 26.4245 44.8979 26.961 44.8979 27.8939C44.8979 28.8309 44.4615 29.3674 43.7808 29.3674ZM46.7074 30H47.5723V27.5456C47.5723 26.893 47.9647 26.4605 48.5732 26.4605C49.1738 26.4605 49.4701 26.8089 49.4701 27.4415V30H50.339V27.2733C50.339 26.3084 49.8064 25.7158 48.8775 25.7158C48.2289 25.7158 47.7805 26.0121 47.5522 26.4926H47.5322V25.7879H46.7074V30Z" fill="#8C8787"/>
</svg>
