<svg width="42" height="45" viewBox="0 0 42 45" fill="none" xmlns="http://www.w3.org/2000/svg">
<path d="M0.59711 26.2224V32H2.6351C4.35678 32 5.36977 30.927 5.36977 29.1012C5.36977 27.2794 4.35277 26.2224 2.6351 26.2224H0.59711ZM1.49398 26.9951H2.55102C3.77221 26.9951 4.45287 27.7479 4.45287 29.1092C4.45287 30.4745 3.77621 31.2232 2.55102 31.2232H1.49398V26.9951ZM8.19227 32.0801C9.39744 32.0801 10.1902 31.2513 10.1902 29.8939C10.1902 28.5406 9.39344 27.7118 8.19227 27.7118C6.99109 27.7118 6.19432 28.5406 6.19432 29.8939C6.19432 31.2513 6.98709 32.0801 8.19227 32.0801ZM8.19227 31.3674C7.51561 31.3674 7.07518 30.8309 7.07518 29.8939C7.07518 28.961 7.51561 28.4245 8.19227 28.4245C8.86893 28.4245 9.30936 28.961 9.30936 29.8939C9.30936 30.8309 8.87293 31.3674 8.19227 31.3674ZM16.6603 27.7879H15.8034L15.0347 31.1031H15.0147L14.1338 27.7879H13.301L12.4241 31.1031H12.4081L11.6394 27.7879H10.7745L11.9317 32H12.8245L13.7014 28.8449H13.7214L14.6063 32H15.5071L16.6603 27.7879ZM17.4488 32H18.3136V29.5456C18.3136 28.893 18.706 28.4605 19.3146 28.4605C19.9152 28.4605 20.2115 28.8089 20.2115 29.4415V32H21.0803V29.2733C21.0803 28.3084 20.5478 27.7158 19.6189 27.7158C18.9703 27.7158 18.5218 28.0121 18.2936 28.4926H18.2736V27.7879H17.4488V32ZM22.2092 32H23.074V26.2224H22.2092V32ZM26.0327 32.0801C27.2378 32.0801 28.0306 31.2513 28.0306 29.8939C28.0306 28.5406 27.2338 27.7118 26.0327 27.7118C24.8315 27.7118 24.0347 28.5406 24.0347 29.8939C24.0347 31.2513 24.8275 32.0801 26.0327 32.0801ZM26.0327 31.3674C25.356 31.3674 24.9156 30.8309 24.9156 29.8939C24.9156 28.961 25.356 28.4245 26.0327 28.4245C26.7093 28.4245 27.1497 28.961 27.1497 29.8939C27.1497 30.8309 26.7133 31.3674 26.0327 31.3674ZM30.4327 31.3874C29.9682 31.3874 29.6639 31.1472 29.6639 30.7788C29.6639 30.4185 29.9562 30.1902 30.4727 30.1542L31.5097 30.0901V30.4225C31.5097 30.971 31.0373 31.3874 30.4327 31.3874ZM30.1925 32.0721C30.745 32.0721 31.2775 31.7758 31.5218 31.3073H31.5418V32H32.3706V29.0972C32.3706 28.2523 31.7179 27.7118 30.697 27.7118C29.6559 27.7118 29.0073 28.2724 28.9593 29.0331H29.7761C29.8521 28.6567 30.1644 28.4165 30.6649 28.4165C31.1934 28.4165 31.5097 28.6968 31.5097 29.1652V29.4896L30.3566 29.5576C29.3556 29.6137 28.7911 30.0661 28.7911 30.8028C28.7911 31.5596 29.3677 32.0721 30.1925 32.0721ZM35.0529 32.0721C35.6655 32.0721 36.146 31.7638 36.3943 31.2833H36.4103V32H37.2511V26.2224H36.3822V28.4886H36.3662C36.13 28.0241 35.6495 27.7198 35.0449 27.7198C33.9879 27.7198 33.2832 28.5646 33.2832 29.8939C33.2832 31.2232 33.9879 32.0721 35.0529 32.0721ZM35.2812 28.4485C35.9458 28.4485 36.3903 29.0211 36.3903 29.8939C36.3903 30.7748 35.9458 31.3394 35.2812 31.3394C34.5965 31.3394 34.1681 30.7828 34.1681 29.8939C34.1681 29.0091 34.5965 28.4485 35.2812 28.4485ZM38.3239 28.9811C38.3239 29.5696 38.7083 29.966 39.469 30.1502L40.2217 30.3344C40.6622 30.4465 40.8223 30.5946 40.8223 30.8629C40.8223 31.2032 40.502 31.4194 39.9815 31.4194C39.453 31.4194 39.1407 31.1952 39.0726 30.7908H38.2158C38.2838 31.5636 38.9445 32.0801 39.9415 32.0801C40.9745 32.0801 41.6912 31.5516 41.6912 30.7828C41.6912 30.1622 41.3709 29.8419 40.522 29.6377L39.8133 29.4735C39.3769 29.3654 39.1687 29.1893 39.1687 28.929C39.1687 28.5967 39.481 28.3685 39.9495 28.3685C40.4339 28.3685 40.7422 28.6047 40.7823 28.9851H41.5951C41.5671 28.2363 40.9104 27.7118 39.9735 27.7118C38.9885 27.7118 38.3239 28.2283 38.3239 28.9811Z" fill="#8C8787"/>
<path fill-rule="evenodd" clip-rule="evenodd" d="M14 19H28C28.2652 19 28.5196 19.1054 28.7071 19.2929C28.8946 19.4804 29 19.7348 29 20C29 20.2652 28.8946 20.5196 28.7071 20.7071C28.5196 20.8946 28.2652 21 28 21H14C13.7348 21 13.4804 20.8946 13.2929 20.7071C13.1054 20.5196 13 20.2652 13 20C13 19.7348 13.1054 19.4804 13.2929 19.2929C13.4804 19.1054 13.7348 19 14 19ZM22 13.175L25.243 9.933L26.657 11.347L21 17.004L15.343 11.347L16.757 9.933L20 13.175V2H22V13.175Z" fill="#8C8787"/>
</svg>
