<svg width="21" height="42" viewBox="0 0 21 42" fill="none" xmlns="http://www.w3.org/2000/svg">
<path d="M0 0V3.4H21V0H0ZM0 6.8V10.2H21V6.8H0ZM0 13.6V17H21V13.6H0Z" fill="#8C8787"/>
<path d="M7.87533 29V23.2224H6.83432L4.9685 27.7828H4.93647L3.06664 23.2224H2.02963V29H2.84643V24.7479H2.87445L4.62016 28.956H5.28481L7.0265 24.7479H7.05453V29H7.87533ZM10.906 29.0801C12.1112 29.0801 12.904 28.2513 12.904 26.8939C12.904 25.5406 12.1072 24.7118 10.906 24.7118C9.70486 24.7118 8.90809 25.5406 8.90809 26.8939C8.90809 28.2513 9.70086 29.0801 10.906 29.0801ZM10.906 28.3674C10.2294 28.3674 9.78895 27.8309 9.78895 26.8939C9.78895 25.961 10.2294 25.4245 10.906 25.4245C11.5827 25.4245 12.0231 25.961 12.0231 26.8939C12.0231 27.8309 11.5867 28.3674 10.906 28.3674ZM13.8326 29H14.6975V26.4775C14.6975 25.881 15.0418 25.5086 15.5984 25.5086C15.7665 25.5086 15.9187 25.5286 15.9867 25.5566V24.7519C15.9227 24.7398 15.8146 24.7198 15.6904 24.7198C15.194 24.7198 14.8176 25.0121 14.6775 25.5046H14.6574V24.7879H13.8326V29ZM18.3608 25.4085C18.9654 25.4085 19.3738 25.8609 19.3938 26.5056H17.2878C17.3318 25.8689 17.7562 25.4085 18.3608 25.4085ZM19.3898 27.7628C19.2737 28.1312 18.9093 28.3794 18.4169 28.3794C17.7242 28.3794 17.2837 27.8949 17.2837 27.1622V27.1102H20.2587V26.8139C20.2587 25.5366 19.5299 24.7118 18.3608 24.7118C17.1716 24.7118 16.4109 25.5927 16.4109 26.914C16.4109 28.2433 17.1596 29.0801 18.3968 29.0801C19.3618 29.0801 20.0905 28.5315 20.2106 27.7628H19.3898Z" fill="#8C8787"/>
</svg>
