<svg width="27" height="45" viewBox="0 0 27 45" fill="none" xmlns="http://www.w3.org/2000/svg">
<path d="M13 19C17.4183 19 21 15.4183 21 11C21 6.58172 17.4183 3 13 3C8.58172 3 5 6.58172 5 11C5 15.4183 8.58172 19 13 19Z" stroke="#8C8787" stroke-width="2" stroke-linecap="round" stroke-linejoin="round"/>
<path d="M22.9999 21L18.6499 16.65" stroke="#8C8787" stroke-width="2" stroke-linecap="round" stroke-linejoin="round"/>
<path d="M0.694141 30.3904C0.750196 31.4354 1.61504 32.0961 2.89629 32.0961C4.26563 32.0961 5.12647 31.4194 5.12647 30.3384C5.12647 29.4936 4.63398 29.0171 3.44883 28.7368L2.81221 28.5807C2.06748 28.3965 1.76318 28.1563 1.76318 27.7479C1.76318 27.2354 2.23965 26.883 2.93633 26.883C3.63301 26.883 4.10947 27.2313 4.16152 27.8079H5.03438C5.00635 26.8109 4.16953 26.1263 2.94834 26.1263C1.71514 26.1263 0.846289 26.8109 0.846289 27.8079C0.846289 28.6127 1.33877 29.1092 2.39981 29.3654L3.14854 29.5456C3.89727 29.7298 4.21357 29.998 4.21357 30.4465C4.21357 30.963 3.68906 31.3394 2.96035 31.3394C2.19961 31.3394 1.64307 30.963 1.579 30.3904H0.694141ZM7.84887 28.4085C8.45346 28.4085 8.86186 28.8609 8.88187 29.5056H6.77582C6.81986 28.8689 7.24428 28.4085 7.84887 28.4085ZM8.87787 30.7628C8.76176 31.1312 8.3974 31.3794 7.90492 31.3794C7.21225 31.3794 6.77182 30.8949 6.77182 30.1622V30.1102H9.74672V29.8139C9.74672 28.5366 9.01801 27.7118 7.84887 27.7118C6.65971 27.7118 5.89896 28.5927 5.89896 29.914C5.89896 31.2433 6.6477 32.0801 7.8849 32.0801C8.84984 32.0801 9.57855 31.5315 9.69867 30.7628H8.87787ZM12.1528 31.3874C11.6884 31.3874 11.3841 31.1472 11.3841 30.7788C11.3841 30.4185 11.6763 30.1902 12.1929 30.1542L13.2299 30.0901V30.4225C13.2299 30.971 12.7574 31.3874 12.1528 31.3874ZM11.9126 32.0721C12.4651 32.0721 12.9976 31.7758 13.2419 31.3073H13.2619V32H14.0907V29.0972C14.0907 28.2523 13.4381 27.7118 12.4171 27.7118C11.3761 27.7118 10.7274 28.2724 10.6794 29.0331H11.4962C11.5722 28.6567 11.8846 28.4165 12.385 28.4165C12.9136 28.4165 13.2299 28.6968 13.2299 29.1652V29.4896L12.0767 29.5576C11.0758 29.6137 10.5112 30.0661 10.5112 30.8028C10.5112 31.5596 11.0878 32.0721 11.9126 32.0721ZM15.1915 32H16.0564V29.4775C16.0564 28.881 16.4007 28.5086 16.9572 28.5086C17.1254 28.5086 17.2776 28.5286 17.3456 28.5566V27.7519C17.2816 27.7398 17.1735 27.7198 17.0493 27.7198C16.5529 27.7198 16.1765 28.0121 16.0363 28.5046H16.0163V27.7879H15.1915V32ZM21.5735 29.2373C21.4974 28.4085 20.8368 27.7118 19.7517 27.7118C18.5546 27.7118 17.7698 28.5566 17.7698 29.8939C17.7698 31.2553 18.5546 32.0801 19.7597 32.0801C20.7727 32.0801 21.4894 31.4715 21.5815 30.5746H20.7487C20.6486 31.0631 20.3003 31.3554 19.7677 31.3554C19.0951 31.3554 18.6506 30.8188 18.6506 29.8939C18.6506 28.9891 19.0911 28.4325 19.7597 28.4325C20.3243 28.4325 20.6606 28.7889 20.7487 29.2373H21.5735ZM22.4861 32H23.351V29.5656C23.351 28.901 23.7434 28.4605 24.384 28.4605C24.9926 28.4605 25.3049 28.8329 25.3049 29.4535V32H26.1737V29.2854C26.1737 28.3324 25.6212 27.7158 24.6963 27.7158C24.0557 27.7158 23.5952 28.0001 23.363 28.4926H23.343V26.2224H22.4861V32Z" fill="#8C8787"/>
</svg>
