<svg width="16" height="14" viewBox="0 0 16 14" fill="none" xmlns="http://www.w3.org/2000/svg">
<path d="M8.91211 13.836L8.91211 12.2539C8.91211 12.1641 8.87305 12.0782 8.80469 12.0176L3.87695 7.74223L14.875 7.74223C14.9609 7.74223 15.0312 7.67192 15.0312 7.58598L15.0312 6.4141C15.0312 6.32816 14.9609 6.25785 14.875 6.25785L3.87695 6.25785L8.80469 1.98246C8.87305 1.92387 8.91211 1.83793 8.91211 1.74613L8.91211 0.164101C8.91211 0.0312887 8.75391 -0.0409769 8.6543 0.0469137L1.18359 6.52934C1.11599 6.58793 1.06178 6.66038 1.02462 6.74176C0.987464 6.82314 0.968235 6.91155 0.968235 7.00102C0.968235 7.09048 0.987464 7.17889 1.02462 7.26027C1.06178 7.34165 1.11599 7.4141 1.18359 7.4727L8.6543 13.9532C8.75586 14.0411 8.91211 13.9688 8.91211 13.836Z" fill="white"/>
</svg>
