<svg width="19" height="19" viewBox="0 0 19 19" fill="none" xmlns="http://www.w3.org/2000/svg">
<path d="M2.375 9.5L3.16667 9.5L2.375 9.5ZM15.8333 9.5L16.625 9.5L15.8333 9.5ZM9.5 2.375L9.5 3.16667L9.5 2.375ZM9.5 15.8333L9.5 16.625L9.5 15.8333ZM14.5382 4.46183L13.9785 5.02154L14.5382 4.46183ZM5.02154 13.9785L4.46183 14.5382L5.02154 13.9785ZM4.46183 4.46183L5.02154 5.02154L4.46183 4.46183ZM13.9785 13.9785L14.5382 14.5382L13.9785 13.9785ZM9.5 6.33333C10.3399 6.33333 11.1453 6.66696 11.7392 7.26083C12.333 7.85469 12.6667 8.66015 12.6667 9.5C12.6667 10.3399 12.333 11.1453 11.7392 11.7392C11.1453 12.333 10.3399 12.6667 9.5 12.6667C8.66015 12.6667 7.85469 12.333 7.26083 11.7392C6.66696 11.1453 6.33333 10.3399 6.33333 9.5C6.33333 8.66015 6.66696 7.85469 7.26083 7.26083C7.85469 6.66696 8.66015 6.33333 9.5 6.33333V6.33333Z" stroke="white" stroke-width="1.58333" stroke-linecap="round" stroke-linejoin="round"/>
</svg>
