<svg width="17" height="17" viewBox="0 0 17 17" fill="none" xmlns="http://www.w3.org/2000/svg">
<path d="M10.8305 7.28873L8.86135 9.2579C8.74344 9.22654 8.6221 9.20989 8.5001 9.20831C8.12438 9.20831 7.76405 9.35757 7.49837 9.62324C7.23269 9.88892 7.08344 10.2493 7.08344 10.625C7.08501 10.747 7.10167 10.8683 7.13302 10.9862L6.58052 11.5387C6.51413 11.6046 6.46143 11.6829 6.42547 11.7692C6.38951 11.8556 6.371 11.9481 6.371 12.0416C6.371 12.1352 6.38951 12.2277 6.42547 12.3141C6.46143 12.4004 6.51413 12.4787 6.58052 12.5446C6.64637 12.611 6.72471 12.6636 6.81103 12.6996C6.89734 12.7356 6.98993 12.7541 7.08344 12.7541C7.17694 12.7541 7.26953 12.7356 7.35584 12.6996C7.44216 12.6636 7.5205 12.611 7.58635 12.5446L8.13885 11.9921C8.25677 12.0234 8.3781 12.0401 8.5001 12.0416C8.87583 12.0416 9.23616 11.8924 9.50184 11.6267C9.76751 11.361 9.91677 11.0007 9.91677 10.625C9.91519 10.503 9.89854 10.3816 9.86719 10.2637L11.8364 8.29456C11.9697 8.16118 12.0447 7.98028 12.0447 7.79165C12.0447 7.60302 11.9697 7.42211 11.8364 7.28873C11.703 7.15535 11.5221 7.08041 11.3334 7.08041C11.1448 7.08041 10.9639 7.15535 10.8305 7.28873ZM8.5001 2.83331C7.56991 2.83331 6.64882 3.01653 5.78943 3.3725C4.93004 3.72847 4.14918 4.25022 3.49143 4.90797C2.16305 6.23636 1.41677 8.03803 1.41677 9.91665C1.41328 11.3196 1.83024 12.6913 2.61385 13.855C2.71906 14.0109 2.88189 14.1187 3.06654 14.1545C3.25118 14.1904 3.44251 14.1514 3.59844 14.0462C3.75436 13.941 3.86211 13.7782 3.89798 13.5935C3.93384 13.4089 3.89489 13.2176 3.78969 13.0616C3.21914 12.2085 2.89101 11.2164 2.84035 10.1913C2.78968 9.16617 3.01838 8.14655 3.50202 7.24129C3.98566 6.33603 4.70609 5.57912 5.58637 5.05138C6.46666 4.52364 7.47375 4.24489 8.5001 4.24489C9.52646 4.24489 10.5335 4.52364 11.4138 5.05138C12.2941 5.57912 13.0145 6.33603 13.4982 7.24129C13.9818 8.14655 14.2105 9.16617 14.1599 10.1913C14.1092 11.2164 13.7811 12.2085 13.2105 13.0616C13.1583 13.1388 13.1218 13.2255 13.1032 13.3168C13.0846 13.4081 13.0841 13.5022 13.1019 13.5936C13.1196 13.6851 13.1553 13.7721 13.2067 13.8498C13.2582 13.9275 13.3245 13.9942 13.4018 14.0462C13.519 14.125 13.6572 14.167 13.7984 14.1666C13.9145 14.1668 14.0288 14.1385 14.1313 14.0841C14.2338 14.0298 14.3214 13.9511 14.3864 13.855C15.17 12.6913 15.5869 11.3196 15.5834 9.91665C15.5834 8.03803 14.8372 6.23636 13.5088 4.90797C12.1804 3.57959 10.3787 2.83331 8.5001 2.83331Z" fill="white"/>
</svg>
